HIERARCHY
ROOT hip
{
	OFFSET 0.000000 0.000000 0.000000 
	CHANNELS 6 Xposition Yposition Zposition Xrotation Zrotation Yrotation
	JOINT abdomen
	{
		OFFSET 0.000000 3.402643 0.000000 
		CHANNELS 3 Xrotation Zrotation Yrotation
		JOINT chest
		{
			OFFSET 0.000000 8.438565 -0.680529 
			CHANNELS 3 Xrotation Zrotation Yrotation
			JOINT neck
			{
				OFFSET 0.000000 10.207942 -0.272212 
				CHANNELS 3 Xrotation Zrotation Yrotation
				JOINT head
				{
					OFFSET 0.000000 3.130431 0.000000 
					CHANNELS 3 Xrotation Zrotation Yrotation
					End Site
					{
						OFFSET 0.000000 3.130435 0.000000 
					}
				}
			}
			JOINT lCollar
			{
				OFFSET 3.470700 6.669187 -0.816635 
				CHANNELS 3 Yrotation Zrotation Xrotation
				JOINT lShldr
				{
					OFFSET 3.198488 0.000000 0.000000 
					CHANNELS 3 Zrotation Yrotation Xrotation
					JOINT lForeArm
					{
						OFFSET 10.139888 0.000000 0.000000 
						CHANNELS 3 Yrotation Zrotation Xrotation
						JOINT lHand
						{
							OFFSET 8.370511 0.000000 0.000000 
							CHANNELS 3 Zrotation Yrotation Xrotation
							End Site
							{
								OFFSET 4.083176 0.000000 0.000000 
							}
						}
					}
				}
			}
			JOINT rCollar
			{
				OFFSET -3.470700 6.669187 -0.816635 
				CHANNELS 3 Yrotation Zrotation Xrotation
				JOINT rShldr
				{
					OFFSET -3.198488 0.000000 0.000000 
					CHANNELS 3 Zrotation Yrotation Xrotation
					JOINT rForeArm
					{
						OFFSET -10.139888 0.000000 0.000000 
						CHANNELS 3 Yrotation Zrotation Xrotation
						JOINT rHand
						{
							OFFSET -8.370511 0.000000 0.000000 
							CHANNELS 3 Zrotation Yrotation Xrotation
							End Site
							{
								OFFSET -4.083176 0.000000 0.000000 
							}
						}
					}
				}
			}
		}
	}
	JOINT lThigh
	{
		OFFSET 5.308129 -1.633274 1.361059 
		CHANNELS 3 Xrotation Zrotation Yrotation
		JOINT lShin
		{
			OFFSET -2.041588 -20.007561 0.000000 
			CHANNELS 3 Xrotation Zrotation Yrotation
			JOINT lFoot
			{
				OFFSET 0.000000 -19.190928 -1.224953 
				CHANNELS 3 Xrotation Yrotation Zrotation
				End Site
				{
					OFFSET 0.000000 -2.449906 4.627600 
				}
			}
		}
	}
	JOINT rThigh
	{
		OFFSET -5.308129 -1.633274 1.361059 
		CHANNELS 3 Xrotation Zrotation Yrotation
		JOINT rShin
		{
			OFFSET 2.041588 -20.007561 0.000000 
			CHANNELS 3 Xrotation Zrotation Yrotation
			JOINT rFoot
			{
				OFFSET 0.000000 -19.190928 -1.224953 
				CHANNELS 3 Xrotation Yrotation Zrotation
				End Site
				{
					OFFSET 0.000000 -2.449906 4.627600 
				}
			}
		}
	}
}
MOTION
Frames: 20
Frame Time: 0.033333
-1.210278 50.246731 3.229095 -4.755859 0.498047 -10.253806 50.636169 -10.553137 -12.291570 -30.078125 10.312500 -2.302939 51.063168 8.107644 2.471410 -75.927734 1.201172 -3.769532 2.000000 -2.000000 0.000000 -77.294922 5.039062 9.190310 -101.509033 0.525628 -2.951088 14.859765 25.295263 5.908503 -2.000000 2.000000 0.000000 81.904297 -42.402344 8.085938 90.604790 0.174470 -3.047396 -15.227565 -50.940639 13.429692 0.895718 -1.615807 -0.295397 35.381306 -4.364591 -3.171586 -16.353594 1.609856 0.680484 -14.145137 -7.740426 -8.232745 72.542816 1.337924 4.679878 36.833111 -14.844902 5.326072 
-2.430009 51.631634 6.473398 -5.302734 -0.361328 -10.166078 48.427937 -7.215549 -13.474235 -27.597658 9.218750 -2.080078 51.063168 8.107644 2.471410 -73.027344 2.255859 -0.039062 2.000000 -2.000000 0.000000 -74.111328 0.371094 15.986327 -105.723122 0.690402 -3.146313 16.102203 23.331543 6.323114 -2.000000 2.000000 0.000000 82.138672 -48.095703 10.705623 93.599121 0.235611 -3.259017 -9.845846 -53.752834 9.666422 0.039014 1.276006 3.130543 37.844673 -4.245230 -3.270315 11.802263 -0.858848 3.832624 -13.339634 -6.035097 -7.527958 60.817406 2.490368 3.815701 32.096180 -14.167463 2.934738 
-3.630844 53.071644 9.687277 -6.005859 -1.240234 -10.263885 46.142258 -3.975822 -15.041776 -25.136721 7.919923 -1.787109 51.063168 8.107644 2.471410 -70.498047 2.744141 3.681641 2.000000 -2.000000 0.000000 -71.933594 -3.896484 20.399727 -109.063828 0.649714 -3.173294 16.954556 21.577597 6.560207 -2.000000 2.000000 0.000000 80.439453 -52.841797 14.453126 96.574074 -0.064191 -3.149193 -4.353786 -55.677780 5.410641 6.336699 3.555051 5.527558 27.329113 -5.237032 -2.469545 35.663986 -0.469990 8.505017 -12.292637 -4.793844 -7.826108 49.226425 3.212793 3.845331 27.334299 -13.756785 -0.209935 
-4.784431 53.471058 12.825082 -6.689453 -2.099609 -10.146843 44.071781 -0.789551 -16.409023 -23.046877 6.982422 -1.767578 51.063168 8.107644 2.471410 -68.603523 2.265625 7.236329 2.000000 -2.000000 0.000000 -70.351563 -8.457032 23.056641 -112.052017 0.766707 -3.180061 17.202902 21.064119 5.883325 -2.000000 2.000000 0.000000 76.865234 -56.582031 18.146149 98.860329 -0.139932 -3.192673 -1.157322 -56.012989 2.821519 15.632203 4.346045 8.271966 13.723064 -5.183885 -1.392748 52.354424 0.963212 11.683912 -10.875861 -3.777880 -7.388651 38.338890 4.062216 3.086288 23.835276 -13.075342 -1.774423 
-5.941943 54.454071 15.927932 -7.402343 -3.144531 -10.166552 42.376144 1.765017 -17.341654 -21.484375 5.888671 -1.904297 51.063168 8.107644 2.471410 -68.750000 0.449219 10.459062 2.000000 -2.000000 0.000000 -68.974609 -13.105468 23.691406 -114.337097 0.864200 -3.185700 17.337364 20.529211 5.401574 -2.000000 2.000000 0.000000 70.615234 -59.541019 23.429083 100.789734 -0.382369 -3.060050 -1.785499 -54.040714 3.005336 17.916945 5.341986 11.526032 16.895222 -5.584289 -1.585625 55.422234 4.139752 13.145198 -7.995887 -3.680291 -8.482207 26.728676 4.560416 2.221322 21.638935 -11.322012 -3.792123 
-7.137131 55.224342 19.042120 -8.115233 -4.003906 -10.000682 41.213135 3.810314 -17.699928 -20.800781 5.166016 -2.284277 51.063168 8.107644 2.471410 -69.843750 -1.806641 13.183595 2.000000 -2.000000 0.000000 -68.964844 -13.730469 23.239870 -115.056190 0.705579 -3.391641 16.907841 20.531727 4.471077 -2.000000 2.000000 0.000000 63.281250 -62.216793 28.126125 102.548065 -0.449486 -3.083488 -4.136796 -50.647579 4.233566 19.078087 5.986818 14.539850 23.964825 -5.443407 -1.904401 46.975346 6.985043 10.346772 -4.628326 -4.139871 -9.377301 16.493958 4.960782 1.402718 21.258654 -9.860823 -3.979006 
-8.315504 54.969135 22.129229 -8.662109 -4.873047 -10.000829 41.608131 4.258898 -16.106125 -22.929688 4.716797 -3.593750 51.063168 8.107644 2.471410 -69.326172 -3.691406 13.769533 2.000000 -2.000000 0.000000 -71.308594 -10.273438 24.072268 -114.161324 0.854451 -3.185136 15.654029 20.199091 3.719329 -2.000000 2.000000 0.000000 57.626953 -65.332031 31.651285 103.603279 -0.487356 -3.105235 -7.435452 -47.042133 6.299332 18.573523 6.474996 17.133308 32.792866 -4.962161 -2.908123 34.140736 9.431448 6.540282 -2.985786 -3.940560 -9.780267 11.018132 5.084188 0.934219 19.900608 -8.379252 -3.394880 
-9.422618 54.342480 25.150957 -9.365234 -5.752109 -9.990922 43.786053 3.184178 -12.355048 -27.353516 4.462891 -5.742188 51.063168 8.107644 2.471410 -66.484375 -5.195313 12.333984 2.000000 -2.000000 0.000000 -74.814453 -4.101563 25.692663 -112.412079 0.963947 -3.152521 14.100912 20.029936 2.655505 -2.000000 2.000000 0.000000 57.832031 -67.246094 30.625765 103.954834 -0.506855 -3.106363 -8.841114 -44.533554 6.763338 16.017578 7.440151 17.553564 41.733665 -4.312368 -3.493629 25.649595 12.327145 3.128612 -4.642979 -2.788315 -8.684114 14.553022 5.524487 0.993522 18.289038 -8.871273 -2.133666 
-10.403985 53.240654 28.069122 -9.931641 -6.425966 -9.981250 45.488621 1.945390 -8.728980 -30.175783 4.169922 -6.826172 51.063168 8.107644 2.471410 -64.472656 -6.269531 10.418856 2.000000 -2.000000 0.000000 -77.421875 2.080078 24.980824 -109.590874 0.669776 -3.164677 12.593260 20.000549 1.999752 -2.000000 2.000000 0.000000 65.996094 -64.687508 21.905235 102.724113 -0.458672 -3.093798 -10.794642 -43.829781 7.883951 10.622531 8.554137 14.601531 51.227905 -3.846286 -3.827881 23.958942 15.155140 0.655250 -7.583674 -0.273232 -7.340851 23.017929 5.080106 1.812815 15.618199 -8.915506 -0.298055 
-11.205144 51.488358 30.845303 -10.458985 -6.943360 -10.175781 46.307579 1.603905 -5.510710 -29.833986 3.808594 -6.093750 51.063168 8.107644 2.471410 -65.820313 -7.148438 8.183594 2.000000 -2.000000 0.000000 -79.990234 6.601562 21.621092 -105.909058 0.514351 -3.145909 11.651114 20.536400 1.540516 -2.000000 2.000000 0.000000 74.130859 -56.308594 11.894531 100.091057 -0.188116 -3.205230 -13.107050 -44.131004 9.430443 2.908545 9.586642 9.088240 61.594379 -2.990161 -4.480445 24.966139 17.084011 -2.336605 -8.221972 1.337171 -6.356670 28.843828 4.953755 2.312285 13.509384 -8.554608 1.140867 
-11.840328 51.102459 33.488174 -10.830078 -7.451172 -10.400392 46.905109 1.325611 -2.423237 -28.076172 3.417969 -4.589844 51.063168 8.107644 2.471410 -70.195313 -7.783203 5.937501 2.000000 -2.000000 0.000000 -83.095703 11.142578 13.203124 -99.076553 -0.116367 -3.226762 11.994587 22.649870 2.717028 -2.000000 2.000000 0.000000 77.519531 -45.566410 6.086777 97.980591 -0.131873 -3.162875 -14.359572 -44.754013 9.933192 -5.604526 9.929256 3.265015 71.172371 -2.008151 -4.730517 26.540628 17.756744 -5.141201 -3.279701 2.469122 -5.118110 29.569258 5.096071 2.292537 -1.545537 -10.560653 0.955579 
-12.372975 51.205265 36.043335 -11.191406 -7.783204 -10.634766 46.982330 0.005713 0.179448 -26.669922 3.037110 -3.642061 51.063168 8.107644 2.471410 -73.896484 -7.441406 4.033203 2.000000 -2.000000 0.000000 -87.666016 17.724609 0.898438 -90.284149 -0.285095 -3.099666 12.767392 25.051987 4.554447 -2.000000 2.000000 0.000000 77.246094 -37.119141 5.087890 97.628204 -0.143312 -3.134201 -14.102777 -44.730770 9.283956 -12.122037 9.477215 -0.394813 77.492035 -1.414198 -5.060332 26.315115 17.983242 -6.278172 1.188810 2.764271 -4.760617 28.187325 4.694462 2.565380 -6.413677 -9.667950 1.980752 
-12.822075 51.722569 38.528362 -11.191406 -7.617188 -11.357421 46.472389 -2.833335 1.492561 -26.318359 3.203125 -3.271485 51.063168 8.107644 2.471410 -76.044922 -6.162109 2.109375 2.000000 -2.000000 0.000000 -92.197266 25.537109 -9.111328 -84.665543 -0.492813 -2.970229 13.678601 27.290611 6.828052 -2.000000 2.000000 0.000000 75.654297 -31.152342 8.076172 99.903572 -0.250555 -3.140385 -12.931173 -43.435215 8.804748 -15.843225 9.146745 -0.762218 76.950867 -1.296570 -5.061917 24.103050 19.094152 -6.325332 4.918474 2.556548 -4.090782 26.420773 4.772787 2.406725 -4.828761 -7.758190 3.236802 
-13.206834 52.484554 40.961090 -10.986327 -6.904297 -12.413283 45.267303 -6.615430 2.510313 -26.318359 3.378906 -3.437500 51.063168 8.107644 2.471410 -76.699219 -4.462891 -0.859375 2.000000 -2.000000 0.000000 -93.691406 33.808594 -11.019958 -84.297234 -0.156402 -2.735513 13.779873 29.069538 8.096604 -2.000000 2.000000 0.000000 74.277344 -25.810545 11.919579 103.771248 -0.434666 -3.170559 -11.047752 -41.801064 7.005944 -17.209549 8.863577 0.727887 70.482437 -2.056853 -4.870991 20.966646 19.933554 -4.790704 7.945782 1.258879 -4.616224 23.602837 4.890652 2.205044 1.266217 -4.749492 3.564266 
-13.546349 53.332691 43.359108 -10.439452 -5.732421 -13.575194 44.099499 -10.416768 3.185486 -26.474611 3.740235 -3.427734 51.063168 8.107644 2.471410 -76.064453 -3.740234 -4.804688 2.000000 -2.000000 0.000000 -92.802734 42.216797 -8.710938 -87.101067 -0.031923 -2.781847 13.972335 30.410236 9.531137 -2.000000 2.000000 0.000000 72.460938 -20.625000 16.679688 108.149582 -0.983280 -2.987247 -8.150755 -40.152592 5.121759 -17.233038 8.309027 1.500232 62.069221 -2.738310 -4.395072 17.876549 19.384766 -2.009985 11.143743 -0.956872 -6.231246 19.550535 5.014836 1.712779 10.619813 -1.522366 -0.794273 
-13.859829 54.073978 45.739872 -10.058594 -4.511719 -14.873815 42.973431 -13.589301 4.127868 -26.474611 4.267578 -3.564453 51.063168 8.107644 2.471410 -75.048828 -4.023438 -9.190138 2.000000 -2.000000 0.000000 -91.533203 48.349609 -6.252469 -89.580467 -0.313216 -3.078483 14.343412 31.196796 10.492809 -2.000000 2.000000 0.000000 70.888672 -15.742189 20.309853 112.196930 -0.993758 -3.144303 -6.127355 -38.576412 4.096526 -14.445350 6.744255 1.232115 49.437584 -3.714169 -3.761845 17.034985 15.463637 1.431080 13.892843 -3.290823 -10.095098 15.480884 5.073953 1.508294 22.381287 2.166446 -7.449027 
-14.166246 54.498585 48.121342 -9.697266 -3.486328 -16.133566 41.849800 -16.155663 4.587759 -25.732424 5.292969 -3.447266 51.063168 8.107644 2.471410 -74.892578 -4.208984 -12.128907 2.000000 -2.000000 0.000000 -92.226563 51.953129 -5.968871 -91.145393 0.111491 -2.839059 14.038132 30.919024 10.020427 -2.000000 2.000000 0.000000 69.501953 -11.201171 23.093805 114.826462 -1.290586 -2.917017 -3.812514 -37.081898 2.957521 -9.619408 5.039308 0.620835 34.648674 -4.418221 -3.078208 17.372129 9.965274 4.396795 13.743857 -5.476941 -12.950908 14.256141 5.121278 1.420642 40.666946 1.827145 -14.870795 
-14.484817 54.398994 50.520851 -9.521484 -2.958984 -16.934237 40.938179 -18.111509 5.004118 -24.824221 6.855469 -3.408203 51.063168 8.107644 2.471410 -75.927734 -3.916015 -12.998047 2.000000 -2.000000 0.000000 -93.515625 53.701176 -6.476504 -92.551903 0.159672 -2.851632 13.594973 29.916744 8.833008 -2.000000 2.000000 0.000000 69.365234 -8.564453 25.301281 116.046555 -1.340461 -2.900344 -1.158762 -36.520802 2.098014 -7.494543 4.196064 0.026021 26.370373 -4.990330 -2.546480 17.043901 6.565806 6.144799 16.038689 -6.454050 -15.867610 9.664432 5.122288 1.009516 55.680233 -1.195099 -21.478512 
-14.748885 54.394215 53.043964 -9.687501 -2.968750 -17.275389 40.834133 -18.807638 4.846846 -24.599611 8.076173 -3.105469 51.063168 8.107644 2.471410 -77.304688 -3.583984 -12.285158 2.000000 -2.000000 0.000000 -93.769531 53.388672 -6.154269 -93.092300 0.065154 -2.963487 13.612438 28.930536 8.076016 -2.000000 2.000000 0.000000 70.615234 -8.710938 26.561024 115.184227 -1.141688 -3.123524 1.255329 -36.523365 2.480646 -7.832561 4.018529 0.038753 26.027676 -5.253683 -2.466202 15.673017 5.914387 5.871445 16.143755 -7.713298 -17.553932 16.713783 4.702430 1.563367 53.611549 -6.152892 -19.028135 
-14.920842 54.366146 55.661251 -10.048828 -3.486328 -17.520294 42.378071 -17.647961 4.121450 -26.191406 8.652344 -2.244625 51.063168 8.107644 2.471410 -77.568359 -4.355469 -11.181643 2.000000 -2.000000 0.000000 -91.523438 51.367184 -3.976746 -92.727959 0.168857 -2.861943 15.231124 28.709467 8.458002 -2.000000 2.000000 0.000000 70.937500 -11.064453 26.679689 112.190437 -1.172466 -2.929742 2.003774 -37.834042 2.794456 -9.387378 4.147279 0.651404 29.371901 -5.132753 -2.663043 13.151089 5.847055 5.369275 14.661353 -8.708667 -18.174948 28.685476 3.955987 2.413332 39.312958 -13.091732 -7.539233 
